<?xml version="1.0" encoding="utf-8"?>
<!-- Generator: Adobe Illustrator 22.0.1, SVG Export Plug-In . SVG Version: 6.00 Build 0)  -->
<svg version="1.1" id="Layer_1" xmlns="http://www.w3.org/2000/svg" xmlns:xlink="http://www.w3.org/1999/xlink" x="0px" y="0px"
	 viewBox="0 0 50 50" style="enable-background:new 0 0 50 50;" xml:space="preserve">
<path d="M25,2.8c12.2,0,22.2,10,22.2,22.2S37.2,47.2,25,47.2S2.8,37.2,2.8,25S12.8,2.8,25,2.8 M25,0C11.2,0,0,11.2,0,25
	s11.2,25,25,25s25-11.2,25-25S38.8,0,25,0L25,0z"/>
<g>
	<path d="M28.4,25l8-8c0.6-0.6,0.6-1.5,0-2.1l-0.6-0.6c-0.6-0.6-1.5-0.6-2.1,0l-8,8l-8-8c-0.6-0.6-1.5-0.6-2.1,0l-0.6,0.6
		c-0.6,0.6-0.6,1.5,0,2.1l8,8l-8,8c-0.6,0.6-0.6,1.5,0,2.1l0.6,0.6c0.6,0.6,1.5,0.6,2.1,0l8-8l8,8c0.6,0.6,1.5,0.6,2.1,0l0.6-0.6
		c0.6-0.6,0.6-1.5,0-2.1L28.4,25z"/>
</g>
</svg>
