<?xml version="1.0" encoding="utf-8"?>
<!-- Generator: Adobe Illustrator 22.0.1, SVG Export Plug-In . SVG Version: 6.00 Build 0)  -->
<svg version="1.1" id="Layer_1" xmlns="http://www.w3.org/2000/svg" xmlns:xlink="http://www.w3.org/1999/xlink" x="0px" y="0px"
	 viewBox="0 0 50 50" style="enable-background:new 0 0 50 50;" xml:space="preserve">
<g>
	<path d="M25,2.8c12.2,0,22.2,10,22.2,22.2S37.2,47.2,25,47.2S2.8,37.2,2.8,25S12.8,2.8,25,2.8 M25,0C11.2,0,0,11.2,0,25
		s11.2,25,25,25s25-11.2,25-25S38.8,0,25,0L25,0z"/>
</g>
<g>
	<path d="M39.4,17.8c-0.6-0.8-1.7-0.9-2.5-0.4L19.2,30.6l-4.6-6.2c-0.6-0.8-1.7-0.9-2.5-0.4c-0.8,0.6-0.9,1.7-0.4,2.5l5.7,7.6
		c0.6,0.8,1.7,0.9,2.5,0.4c0,0,0,0,0.1-0.1l19-14.2C39.8,19.7,39.9,18.6,39.4,17.8z"/>
</g>
</svg>
