<?xml version="1.0" encoding="utf-8"?>
<!-- Generator: Adobe Illustrator 22.0.1, SVG Export Plug-In . SVG Version: 6.00 Build 0)  -->
<svg version="1.1" id="Layer_1" xmlns="http://www.w3.org/2000/svg" xmlns:xlink="http://www.w3.org/1999/xlink" x="0px" y="0px"
	 viewBox="0 0 50 50" style="enable-background:new 0 0 50 50;" xml:space="preserve">
<style type="text/css">
	.st0{fill:#A3A02C;}
</style>
<g>
	<polygon class="st0" points="25,38.2 10.9,45.6 13.6,29.9 2.1,18.7 17.9,16.4 25,2.1 32.1,16.4 47.9,18.7 36.4,29.9 39.1,45.6 	"/>
	<path d="M25,4.4l5.9,12l0.5,0.9l1,0.2l13.3,1.9l-9.6,9.4l-0.8,0.7l0.2,1l2.3,13.2l-11.9-6.2L25,37l-0.9,0.5l-11.9,6.2l2.3-13.2
		l0.2-1l-0.8-0.7l-9.6-9.4l13.3-1.9l1-0.2l0.5-0.9L25,4.4 M25-0.1l-7.7,15.7L0,18l12.5,12.2l-3,17.2L25,39.3l15.5,8.1l-3-17.2L50,18
		l-17.3-2.5L25-0.1L25-0.1z"/>
</g>
</svg>
